<svg width="67" height="77" viewBox="0 0 67 77" fill="none" xmlns="http://www.w3.org/2000/svg">
<path d="M48.5 67C53.1944 67 57 63.1944 57 58.5C57 53.8056 53.1944 50 48.5 50C43.8056 50 40 53.8056 40 58.5C40 63.1944 43.8056 67 48.5 67Z" fill="#F9C859"/>
<path d="M18 24.5391H35.0037" stroke="black" stroke-width="3" stroke-miterlimit="3.8637"/>
<path d="M18 31.5078H48.0129" stroke="black" stroke-width="3" stroke-miterlimit="3.8637"/>
<path d="M18 38.5H48.0156" stroke="black" stroke-width="3" stroke-miterlimit="3.8637"/>
<path d="M18 45.5156H36" stroke="black" stroke-width="3" stroke-miterlimit="3.8637"/>
<path d="M18 52.5117L27 52.5117" stroke="black" stroke-width="3" stroke-miterlimit="3.8637"/>
<path d="M5.51305 8L1.52344 8.00121L1.53383 74.5263H6.69686" stroke="black" stroke-width="3" stroke-miterlimit="3.8637"/>
<path d="M18 64.4336H29.3365" stroke="black" stroke-width="3" stroke-miterlimit="3.8637"/>
<path fill-rule="evenodd" clip-rule="evenodd" d="M64.5078 74.5435V16.6124L50.9373 1.5H7.50781V74.5435" stroke="black" stroke-width="3" stroke-miterlimit="3.8637"/>
<path d="M48.4844 2.10938V18.4843H63.5997" stroke="black" stroke-width="3"/>
<path d="M45.25 57.4956L48.1396 60.3845L52.5358 55.9883" stroke="black" stroke-width="3" stroke-miterlimit="3.8637"/>
</svg>
