<svg width="118" height="87" viewBox="0 0 118 87" fill="none" xmlns="http://www.w3.org/2000/svg">
<path d="M47.9309 61.3258L52.0866 49.667H52.2476L56.372 61.3258H47.9309ZM51.0009 46.8906L42.5234 70.3021H44.7571L47.2504 63.2463H57.0266L59.5251 70.3021H61.7536L53.2761 46.8906H51.0009Z" fill="#F9C859"/>
<path d="M83.1734 66.5302H82.9916L69.1742 46.9023H67.1172V70.3138H69.2417V50.7068H69.4287L83.1942 70.3138H85.2668V46.9023H83.1734V66.5302Z" fill="#F9C859"/>
<path d="M94.9266 46.9023H92.7969V70.3138H94.9266V46.9023Z" fill="#F9C859"/>
<path d="M116.784 61.5814C116.415 60.8954 115.91 60.2931 115.299 59.8122C114.671 59.3237 113.983 58.9185 113.252 58.6067C112.528 58.2932 111.783 58.03 111.024 57.8187L108.567 57.1089C107.999 56.9449 107.442 56.7462 106.899 56.514C106.368 56.2882 105.865 56.0029 105.398 55.6633C104.96 55.3455 104.593 54.9382 104.323 54.4682C104.049 53.9721 103.911 53.4122 103.923 52.8452C103.912 52.0396 104.158 51.2517 104.624 50.5959C105.116 49.9086 105.784 49.3676 106.556 49.0302C107.459 48.6385 108.435 48.4463 109.419 48.4666C110.789 48.4133 112.138 48.821 113.252 49.6252C113.748 49.9902 114.159 50.4594 114.456 51.0002C114.753 51.541 114.929 52.1403 114.971 52.7565H117.049C117.021 51.6159 116.66 50.5089 116.01 49.573C115.33 48.6194 114.413 47.8618 113.351 47.3759C112.146 46.8195 110.832 46.5447 109.507 46.5722C108.172 46.5526 106.849 46.8288 105.632 47.3811C104.542 47.8719 103.6 48.6445 102.905 49.62C102.226 50.5906 101.873 51.7532 101.897 52.9391C101.875 53.6288 101.998 54.3155 102.259 54.954C102.519 55.5925 102.911 56.1686 103.408 56.6445C104.628 57.7303 106.086 58.5101 107.663 58.9198L110.452 59.7444C111.326 59.9925 112.176 60.3174 112.992 60.7151C113.658 61.0293 114.245 61.4914 114.707 62.0668C115.129 62.6448 115.345 63.349 115.319 64.0656C115.336 64.9503 115.062 65.8158 114.54 66.5288C113.988 67.259 113.251 67.8268 112.405 68.1727C110.499 68.9253 108.386 68.9586 106.458 68.2667C105.652 67.9666 104.936 67.4634 104.38 66.8054C103.839 66.1396 103.521 65.3198 103.471 64.4622H101.289C101.35 65.6339 101.739 66.7645 102.411 67.7239C103.119 68.6904 104.071 69.4489 105.169 69.921C107.891 71.0122 110.93 70.9841 113.631 69.8428C114.759 69.3259 115.721 68.5036 116.41 67.4682C117.057 66.4649 117.393 65.2918 117.377 64.0969C117.401 63.2256 117.207 62.3621 116.81 61.5866" fill="#F9C859"/>
<path d="M44.9525 83.7651C44.9627 84.046 44.9113 84.3258 44.8018 84.5845C44.7159 84.801 44.563 84.984 44.3655 85.1063C44.1555 85.2268 43.9163 85.2864 43.6746 85.2786C43.4469 85.283 43.2212 85.2348 43.015 85.1376C42.8297 85.0568 42.6712 84.9247 42.5578 84.7567C42.4459 84.5827 42.388 84.3793 42.3916 84.1722H41.4618C41.4505 84.541 41.55 84.9048 41.7475 85.2159C41.9407 85.51 42.2126 85.7433 42.5318 85.8892C42.8908 86.0514 43.2811 86.1316 43.6746 86.124C44.0841 86.1344 44.4896 86.041 44.8538 85.8526C45.1849 85.6694 45.4543 85.3915 45.6278 85.0541C45.8209 84.6584 45.9154 84.2214 45.9031 83.7808V78.1758H44.9525V83.7651Z" fill="black"/>
<path d="M49.8282 82.5165H53.3501V81.671H49.8282V79.0199H53.5942V78.1797H48.8828V86.0287H53.6566V85.1833H49.8282V82.5165Z" fill="black"/>
<path d="M62.9159 84.5727H62.838L61.1757 78.1797H60.1057L58.4434 84.5727H58.3707L56.7344 78.1797H55.7734L57.9084 86.0287H58.885L60.6095 79.7714H60.6719L62.3965 86.0287H63.373L65.508 78.1797H64.547L62.9159 84.5727Z" fill="black"/>
<path d="M68.711 82.5165H72.2381V81.671H68.711V79.0199H72.4822V78.1797H67.7656V86.0287H72.5446V85.1833H68.711V82.5165Z" fill="black"/>
<path d="M76.0157 78.1797H75.0703V86.0287H79.6467V85.1833H76.0157V78.1797Z" fill="black"/>
<path d="M83.0079 79.0183H84.6754C85.0318 79.0027 85.387 79.0687 85.7143 79.2114C85.9552 79.3285 86.1519 79.5207 86.2753 79.7594C86.3943 80.0175 86.453 80.2995 86.4467 80.5839C86.4542 80.8634 86.3954 81.1407 86.2753 81.3929C86.1534 81.6245 85.9577 81.8083 85.7195 81.9147C85.3909 82.0521 85.0361 82.1145 84.6806 82.0974H83.0027L83.0079 79.0183ZM86.2077 82.6715C86.5764 82.4882 86.8795 82.1946 87.0752 81.8312C87.2632 81.4472 87.3609 81.0249 87.3609 80.597C87.3609 80.169 87.2632 79.7468 87.0752 79.3627C86.8818 78.9937 86.5785 78.6945 86.2077 78.5068C85.7383 78.2813 85.2213 78.1739 84.7014 78.1937H82.0625V86.0219H83.0079V82.9533H84.9143L86.5662 86.0271H87.6622L85.8961 82.7863C86.004 82.7533 86.1084 82.7096 86.2077 82.6558" fill="black"/>
<path d="M94.5609 78.1797L92.3948 81.8433H92.3013L90.1352 78.1797H89.0547L91.8753 82.7931V86.0287H92.8207V82.7931L95.6466 78.1797H94.5609Z" fill="black"/>
<path d="M37.9054 50.8888C36.3055 56.3529 28.467 64.3898 19.2675 70.0052C10.068 75.6206 2.82684 76.9462 2.12558 76.012C1.94377 75.3545 2.19832 74.3942 2.85802 73.2304C6.2033 67.3645 18.4416 58.1899 34.8719 49.2971C35.9575 48.7126 37.0483 48.1333 38.1548 47.554C38.333 48.6709 38.2422 49.8144 37.8899 50.8888H37.9054ZM39.2145 44.6628C36.3731 40.0963 28.6073 38.4785 21.7453 37.0538C18.7065 36.4171 15.8391 35.8221 13.7665 35.0393C9.6109 33.4737 7.57982 31.6837 7.64216 29.6692C7.73566 26.8615 11.6887 22.0967 18.2131 16.9197C28.4619 8.79405 43.5831 0.866717 50.1749 2.22882C50.4945 2.27341 50.7973 2.40011 51.054 2.59667C51.3106 2.79324 51.5124 3.05301 51.6398 3.35086C52.0657 4.33721 52.5384 7.52588 47.6816 15.6307C47.5453 15.8464 47.4883 16.1033 47.5206 16.3568C47.5528 16.6103 47.6723 16.8445 47.8582 17.0189C47.9728 17.1161 48.1071 17.1873 48.2517 17.2275C48.3963 17.2676 48.5478 17.2758 48.6959 17.2515C48.844 17.2272 48.9852 17.171 49.1096 17.0867C49.2339 17.0024 49.3386 16.892 49.4165 16.7631C53.3799 10.1457 54.7617 5.35486 53.5254 2.51062C53.2663 1.90589 52.8605 1.37603 52.3451 0.969434C51.8297 0.562838 51.2211 0.292475 50.5749 0.183048C43.3026 -1.31996 27.7606 6.67523 16.9144 15.2758C12.7588 18.5897 5.70985 24.8523 5.55401 29.6014C5.45012 32.6126 7.96427 35.102 13.0237 37.0016C15.247 37.8366 18.2183 38.4524 21.335 39.0891C27.7138 40.4147 34.9238 41.9177 37.3808 45.6282C17.9845 55.7527 4.68652 65.825 1.06594 72.1814C0.110148 73.8619 -0.206743 75.3388 0.1309 76.56C0.22785 76.9018 0.405492 77.2151 0.648767 77.4731C0.892043 77.7311 1.19379 77.9264 1.52826 78.0422C2.09382 78.2399 2.6906 78.3318 3.28915 78.3135C7.02401 78.3135 13.7873 75.7772 20.3376 71.7796C28.3164 66.9157 37.838 58.4873 39.895 51.4733C40.4085 49.8865 40.4679 48.1867 40.0664 46.5676C56.2681 38.1184 83.1809 26.9189 117.169 19.9257C117.302 19.8983 117.429 19.8447 117.542 19.768C117.656 19.6912 117.752 19.5929 117.828 19.4785C117.903 19.3641 117.955 19.236 117.981 19.1014C118.007 18.9668 118.006 18.8284 117.979 18.6941C117.952 18.5598 117.898 18.4322 117.822 18.3185C117.746 18.2049 117.648 18.1075 117.534 18.0319C117.42 17.9563 117.293 17.904 117.159 17.8779C117.025 17.8519 116.887 17.8525 116.753 17.88C82.6043 24.9044 55.5565 36.1457 39.2249 44.6523" fill="#F9C859"/>
</svg>
