<svg width="14" height="16" viewBox="0 0 14 16" fill="none" xmlns="http://www.w3.org/2000/svg">
<mask id="path-1-outside-1_138_5897" maskUnits="userSpaceOnUse" x="0" y="-0.332031" width="14" height="16" fill="black">
<rect fill="white" y="-0.332031" width="14" height="16"/>
<path fill-rule="evenodd" clip-rule="evenodd" d="M13.6507 6.60413V4.14089C12.7766 4.04337 11.9582 3.66607 11.3242 3.06541C10.6512 2.42786 10.2288 1.57925 10.1308 0.667969H7.98631L7.9639 10.8906C7.9639 12.1448 6.83135 13.1329 5.54889 13.1329C4.93315 13.1329 4.34262 12.8937 3.90723 12.4679C3.47183 12.0421 3.22723 11.4646 3.22723 10.8624C3.22723 10.2602 3.47183 9.68271 3.90723 9.2569C4.34262 8.83109 4.93315 8.59188 5.54889 8.59188C5.62029 8.59188 5.68934 8.60111 5.75844 8.61035C5.78226 8.61353 5.80609 8.61672 5.83003 8.61953V6.42725C5.80785 6.42589 5.78571 6.42438 5.76356 6.42287C5.69245 6.41802 5.62129 6.41317 5.54889 6.41317C4.6492 6.41317 3.76972 6.67408 3.02166 7.16291C2.2736 7.65174 1.69056 8.34654 1.34627 9.15944C1.00197 9.97233 0.911888 10.8668 1.08741 11.7298C1.26293 12.5928 1.69617 13.3854 2.33234 14.0076C2.96851 14.6298 3.77905 15.0535 4.66144 15.2251C5.54384 15.3968 6.45847 15.3087 7.28967 14.972C8.12087 14.6353 8.83131 14.0651 9.33115 13.3335C9.83098 12.6019 10.0978 11.7418 10.0978 10.8619V4.84278C10.4613 5.3858 10.9574 5.83174 11.5413 6.14033C12.1252 6.44893 12.7784 6.61047 13.4421 6.61038C13.5117 6.61007 13.5812 6.60799 13.6507 6.60413Z"/>
</mask>
<path fill-rule="evenodd" clip-rule="evenodd" d="M13.6507 6.60413V4.14089C12.7766 4.04337 11.9582 3.66607 11.3242 3.06541C10.6512 2.42786 10.2288 1.57925 10.1308 0.667969H7.98631L7.9639 10.8906C7.9639 12.1448 6.83135 13.1329 5.54889 13.1329C4.93315 13.1329 4.34262 12.8937 3.90723 12.4679C3.47183 12.0421 3.22723 11.4646 3.22723 10.8624C3.22723 10.2602 3.47183 9.68271 3.90723 9.2569C4.34262 8.83109 4.93315 8.59188 5.54889 8.59188C5.62029 8.59188 5.68934 8.60111 5.75844 8.61035C5.78226 8.61353 5.80609 8.61672 5.83003 8.61953V6.42725C5.80785 6.42589 5.78571 6.42438 5.76356 6.42287C5.69245 6.41802 5.62129 6.41317 5.54889 6.41317C4.6492 6.41317 3.76972 6.67408 3.02166 7.16291C2.2736 7.65174 1.69056 8.34654 1.34627 9.15944C1.00197 9.97233 0.911888 10.8668 1.08741 11.7298C1.26293 12.5928 1.69617 13.3854 2.33234 14.0076C2.96851 14.6298 3.77905 15.0535 4.66144 15.2251C5.54384 15.3968 6.45847 15.3087 7.28967 14.972C8.12087 14.6353 8.83131 14.0651 9.33115 13.3335C9.83098 12.6019 10.0978 11.7418 10.0978 10.8619V4.84278C10.4613 5.3858 10.9574 5.83174 11.5413 6.14033C12.1252 6.44893 12.7784 6.61047 13.4421 6.61038C13.5117 6.61007 13.5812 6.60799 13.6507 6.60413Z" fill="white"/>
<path d="M13.6507 4.14089H13.8507V3.96196L13.6729 3.94212L13.6507 4.14089ZM13.6507 6.60413L13.6618 6.80382L13.8507 6.79332V6.60413H13.6507ZM11.3242 3.06541L11.1866 3.2106L11.3242 3.06541ZM10.1308 0.667969L10.3297 0.646588L10.3105 0.467969H10.1308V0.667969ZM7.98631 0.667969V0.467969H7.78674L7.78631 0.66753L7.98631 0.667969ZM7.9639 10.8906L7.7639 10.8901V10.8906H7.9639ZM3.90723 12.4679L3.76739 12.6109H3.76739L3.90723 12.4679ZM3.90723 9.2569L3.76739 9.11391H3.76739L3.90723 9.2569ZM5.75844 8.61035L5.78495 8.41211H5.78495L5.75844 8.61035ZM5.83003 8.61953L5.80671 8.81816L6.03003 8.84437V8.61953H5.83003ZM5.83003 6.42725H6.03003V6.23917L5.8423 6.22763L5.83003 6.42725ZM5.76356 6.42287L5.74995 6.62241H5.74995L5.76356 6.42287ZM3.02166 7.16291L3.13107 7.33034L3.02166 7.16291ZM1.34627 9.15944L1.1621 9.08144H1.1621L1.34627 9.15944ZM1.08741 11.7298L0.89142 11.7697H0.89142L1.08741 11.7298ZM2.33234 14.0076L2.1925 14.1506L2.33234 14.0076ZM7.28967 14.972L7.36476 15.1573L7.28967 14.972ZM9.33115 13.3335L9.16601 13.2206L9.33115 13.3335ZM10.0978 4.84278L10.264 4.73152L9.89777 4.18456V4.84278H10.0978ZM11.5413 6.14033L11.6347 5.96351L11.6347 5.96351L11.5413 6.14033ZM13.4421 6.61038L13.4421 6.81038L13.443 6.81038L13.4421 6.61038ZM13.4507 4.14089V6.60413H13.8507V4.14089H13.4507ZM11.1866 3.2106C11.8527 3.84158 12.7118 4.23737 13.6285 4.33966L13.6729 3.94212C12.8415 3.84937 12.0638 3.49055 11.4617 2.92022L11.1866 3.2106ZM9.93199 0.68935C10.0351 1.64847 10.4796 2.54078 11.1866 3.2106L11.4617 2.92022C10.8228 2.31494 10.4225 1.51004 10.3297 0.646588L9.93199 0.68935ZM7.98631 0.867969H10.1308V0.467969H7.98631V0.867969ZM8.1639 10.891L8.18631 0.668407L7.78631 0.66753L7.7639 10.8901L8.1639 10.891ZM5.54889 13.3329C6.92377 13.3329 8.1639 12.2725 8.1639 10.8906H7.7639C7.7639 12.0171 6.73892 12.9329 5.54889 12.9329V13.3329ZM3.76739 12.6109C4.24062 13.0737 4.88152 13.3329 5.54889 13.3329V12.9329C4.98477 12.9329 4.44463 12.7137 4.04707 12.3249L3.76739 12.6109ZM3.02723 10.8624C3.02723 11.5191 3.29401 12.148 3.76739 12.6109L4.04707 12.3249C3.64966 11.9363 3.42723 11.4101 3.42723 10.8624H3.02723ZM3.76739 9.11391C3.29401 9.57687 3.02723 10.2057 3.02723 10.8624H3.42723C3.42723 10.3147 3.64966 9.78855 4.04707 9.39989L3.76739 9.11391ZM5.54889 8.39188C4.88152 8.39188 4.24062 8.65111 3.76739 9.11391L4.04707 9.39989C4.44463 9.01108 4.98477 8.79188 5.54889 8.79188V8.39188ZM5.78495 8.41211C5.71783 8.40314 5.63574 8.39188 5.54889 8.39188V8.79188C5.60485 8.79188 5.66085 8.79908 5.73194 8.80858L5.78495 8.41211ZM5.85334 8.42089C5.83127 8.4183 5.80903 8.41533 5.78495 8.41211L5.73193 8.80858C5.7555 8.81173 5.78092 8.81514 5.80671 8.81816L5.85334 8.42089ZM5.63003 6.42725V8.61953H6.03003V6.42725H5.63003ZM5.74995 6.62241C5.77199 6.62391 5.7948 6.62547 5.81775 6.62688L5.8423 6.22763C5.8209 6.22632 5.79942 6.22485 5.77716 6.22333L5.74995 6.62241ZM5.54889 6.61317C5.61337 6.61317 5.67778 6.61749 5.74995 6.62241L5.77717 6.22333C5.70712 6.21856 5.62921 6.21317 5.54889 6.21317V6.61317ZM3.13107 7.33034C3.84636 6.86291 4.68778 6.61317 5.54889 6.61317V6.21317C4.61062 6.21317 3.69308 6.48525 2.91226 6.99549L3.13107 7.33034ZM1.53043 9.23744C1.85903 8.46158 2.41582 7.79773 3.13107 7.33034L2.91226 6.99549C2.13139 7.50576 1.52209 8.2315 1.1621 9.08144L1.53043 9.23744ZM1.28339 11.6899C1.11595 10.8666 1.20184 10.0132 1.53043 9.23744L1.1621 9.08144C0.802097 9.93143 0.707829 10.867 0.89142 11.7697L1.28339 11.6899ZM2.47218 13.8646C1.8643 13.2701 1.45085 12.5132 1.28339 11.6899L0.89142 11.7697C1.07501 12.6723 1.52803 13.5008 2.1925 14.1506L2.47218 13.8646ZM4.69963 15.0288C3.85519 14.8645 3.08011 14.4592 2.47218 13.8646L2.1925 14.1506C2.85692 14.8004 3.70291 15.2424 4.62325 15.4214L4.69963 15.0288ZM7.21458 14.7866C6.41937 15.1087 5.5441 15.1931 4.69963 15.0288L4.62325 15.4214C5.54358 15.6005 6.49757 15.5086 7.36476 15.1573L7.21458 14.7866ZM9.16601 13.2206C8.68868 13.9193 8.00975 14.4645 7.21458 14.7866L7.36476 15.1573C8.23199 14.806 8.97394 14.2108 9.49628 13.4463L9.16601 13.2206ZM9.89777 10.8619C9.89777 11.7012 9.6433 12.522 9.16601 13.2206L9.49628 13.4463C10.0187 12.6817 10.2978 11.7823 10.2978 10.8619H9.89777ZM9.89777 4.84278V10.8619H10.2978V4.84278H9.89777ZM11.6347 5.96351C11.0799 5.67023 10.6089 5.24669 10.264 4.73152L9.93158 4.95405C10.3138 5.52491 10.835 5.99324 11.4478 6.31715L11.6347 5.96351ZM13.4421 6.41038C12.8108 6.41046 12.1897 6.2568 11.6347 5.96351L11.4478 6.31715C12.0607 6.64105 12.746 6.81047 13.4421 6.81038L13.4421 6.41038ZM13.6396 6.40443C13.5735 6.40811 13.5074 6.41009 13.4412 6.41038L13.443 6.81038C13.516 6.81006 13.5889 6.80787 13.6618 6.80382L13.6396 6.40443Z" fill="white" mask="url(#path-1-outside-1_138_5897)"/>
</svg>
